<mxfile host="app.diagrams.net" modified="2023-05-02T12:47:39.557Z" agent="Mozilla/5.0 (Windows NT 10.0; Win64; x64) AppleWebKit/537.36 (KHTML, like Gecko) Chrome/112.0.0.0 Safari/537.36" version="21.1.2" etag="kPTERkR917mJaT4ykdGJ" type="github">
  <diagram name="Pagina-1" id="tfyRoUVc5bZtNhvr8W06">
    <mxGraphModel>
      <root>
        <mxCell id="0" />
        <mxCell id="1" parent="0" />
      </root>
    </mxGraphModel>
  </diagram>
</mxfile>
